<svg id="Layer_2" data-name="Layer 2" xmlns="http://www.w3.org/2000/svg" width="622" height="858" viewBox="0 0 622 858"><defs><style>.cls-1,.cls-3,.cls-6,.cls-8{stroke:#000;stroke-miterlimit:10;}.cls-1{opacity:0.28;}.cls-2{fill:#ffc299;}.cls-3,.cls-4{fill:#2d221d;}.cls-5{fill:#fc9;}.cls-6{fill:#141212;}.cls-7{fill:#fc9228;}.cls-8{opacity:0.09;}</style></defs><title>dreng</title><path class="cls-1" d="M201.5,266.26l-22,143.1,95,88.06-11,66,28,55,66-53v-66l86-46,26-145.1s-110-121.79-154-115.79S225.5,237.24,201.5,266.26Z"/><rect class="cls-2" x="477.5" y="725.5" width="56" height="109" rx="28" ry="28" transform="translate(-283.5 288.66) rotate(-25.14)"/><rect class="cls-2" x="59.5" y="691.5" width="56" height="109" rx="28" ry="28" transform="translate(207.92 4.6) rotate(15.92)"/><polygon class="cls-3" points="216.47 199.77 198.91 261.36 153.03 208.55 216.47 199.77"/><polygon class="cls-3" points="272.09 168.47 214.94 198.33 221.5 128.5 272.09 168.47"/><polygon class="cls-3" points="335.86 145.99 274.22 164.88 293.45 97.43 335.86 145.99"/><polygon class="cls-3" points="400.56 168.15 340.5 145.5 396.96 104.06 400.56 168.15"/><polygon class="cls-3" points="446.54 198.6 393.92 161.34 459.07 135.36 446.54 198.6"/><polygon class="cls-3" points="486.76 232.26 436.17 192.29 502.6 169.76 486.76 232.26"/><polygon class="cls-3" points="470.81 290.4 476.84 226.21 531.88 269.69 470.81 290.4"/><polygon class="cls-4" points="214.02 198.5 201 254.5 466 315 480.5 223.5 373.31 139.5 297.17 147.5 214.02 198.5"/><path class="cls-5" d="M201.5,254.26l-22,143.1,95,88.06-11,66,28,55,66-53v-66l86-46,26-145.1s-110-121.79-154-115.79S225.5,225.24,201.5,254.26Z"/><rect class="cls-6" x="267.5" y="279.5" width="15" height="71" rx="7.5" ry="7.5" transform="translate(66.49 -47.45) rotate(11.21)"/><path class="cls-5" d="M201.5,254.26l-22,143.1"/><rect class="cls-6" x="367.5" y="295.5" width="15" height="71" rx="7.5" ry="7.5" transform="translate(71.51 -66.59) rotate(11.21)"/><polygon class="cls-7" points="145.58 474 259.06 527.68 289.04 607.48 359.7 540.74 453.92 498.67 531 746.77 448.56 799 444.28 746.77 428.22 799 145.58 775.79 131.66 698.89 122.03 754.02 61 703.24 145.58 474"/><path class="cls-8" d="M333.53,184.87C325.67,222.85,318,261.05,313,300c-12.17,99.27-12.07,196.78-11.19,295l51.69-41.54v-66l86-46,26-145.1S384.3,206.39,333.53,184.87Z"/><path class="cls-4" d="M279.39,146s79.26,125.65,178.1,145.76S279.39,146,279.39,146Z"/></svg>
