<svg id="Layer_2" data-name="Layer 2" xmlns="http://www.w3.org/2000/svg" width="636" height="860" viewBox="0 0 636 860"><defs><style>.cls-1{fill:#00132a;}.cls-2{fill:#fc9;}.cls-3{fill:#2a0a00;}.cls-3,.cls-5,.cls-8{stroke:#000;stroke-miterlimit:10;}.cls-4{fill:#130015;}.cls-5{opacity:0.09;}.cls-6{fill:#002f6a;}.cls-7{fill:#00097f;}.cls-8{fill:none;stroke-width:5px;opacity:0.05;}.cls-9{fill:#afb8bf;}.cls-10{fill:#a0f7f9;opacity:0.7;}.cls-11{fill:#3f250a;}</style></defs><title>drenge</title><rect class="cls-1" x="194" y="522" width="72" height="276" rx="28" ry="28"/><rect class="cls-1" x="120" y="519" width="72" height="276" rx="28" ry="28"/><rect class="cls-2" x="22.5" y="456.5" width="167" height="41" rx="20.5" ry="20.5" transform="matrix(0.78, 0.62, -0.62, 0.78, 318.56, 37.02)"/><rect class="cls-2" x="49" y="310" width="46" height="154" rx="23" ry="23" transform="translate(97.67 -5.8) rotate(14.28)"/><rect class="cls-2" x="178" y="246" width="36" height="77" rx="18" ry="18"/><rect x="261" y="375" width="7" height="4" rx="2" ry="2" transform="translate(121.46 -60.76) rotate(16.96)"/><rect x="275.79" y="380.43" width="17" height="4.02" rx="2" ry="2" transform="translate(103.11 -58.3) rotate(14.28)"/><polygon class="cls-2" points="106 129 106 234 196 275 266.5 234 266 129 196 80 106 129"/><path class="cls-3" d="M187.5,81.5l33,55h44v79s39-62,39-102-88-84-88-84l-52,55-61-7v131Z"/><rect class="cls-4" x="213" y="149" width="9" height="60" rx="4.5" ry="4.5"/><rect class="cls-4" x="168" y="150" width="9" height="60" rx="4.5" ry="4.5"/><path class="cls-5" d="M265.5,233,265,128,195,79l-1.05.57q-.12,97-.2,193.86L195,274Z"/><polygon class="cls-6" points="46.5 372.5 63.5 265.5 170.5 283.5 210.5 318.5 215.5 283.5 291.5 260.5 346.5 366.5 271.5 401.5 271.5 471.5 276.5 571.5 111.5 571.5 111.5 422.5 111.5 392.5 46.5 372.5"/><rect class="cls-1" x="413" y="555" width="72" height="276" rx="28" ry="28"/><rect class="cls-1" x="467" y="551" width="72" height="276" rx="28" ry="28"/><path class="cls-4" d="M353.37,30.23s-4.13,80.34-22.69,84.16,11.34,48.46,22.69,43.36L368.84,196l78.38-82.88,68.06,44.63L539,105.47S452.37,25.13,431.75,30.23s-62.91,28.06-62.91,28.06Z"/><rect class="cls-2" x="422" y="227" width="56" height="97" rx="28" ry="28"/><path class="cls-7" d="M548.5,339.55h.73S556,293.34,450,284l-65,56,.24.05A29.64,29.64,0,0,0,382,353.57V552.93c0,16,12.6,29.07,28,29.07H524c15.4,0,28-13.08,28-29.07V353.57A29.63,29.63,0,0,0,548.5,339.55Z"/><polygon class="cls-2" points="457.5 351.5 475.5 328.5 509.5 351.5 495.5 532.5 339.5 453.5 312.5 421.5 273.5 411.5 273.5 383.5 347.5 404.5 360.5 396.5 360.5 413.5 449.5 472.5 457.5 351.5"/><path class="cls-2" d="M428,284l91-67-8-77s-71-21-70-41-32,52-74,67v75S405,284,428,284Z"/><path class="cls-8" d="M427.5,284l91-67-8-77s-71-21-70-41-32,52-74,67v75S404.5,284,427.5,284Z"/><rect class="cls-4" x="401" y="160" width="9" height="60" rx="4.5" ry="4.5" transform="translate(-15.93 38.58) rotate(-5.34)"/><rect class="cls-9" x="249.1" y="378.06" width="108.19" height="18.08" rx="9" ry="9" transform="translate(104.84 -62.82) rotate(14.28)"/><rect class="cls-4" x="446" y="149" width="9" height="60" rx="4.5" ry="4.5"/><path class="cls-10" d="M258.61,331.38,207,194.37l300.24,142-138.65,47A87.49,87.49,0,0,1,258.61,331.38Z"/><path class="cls-5" d="M511.5,143s-71-21-70-41c.22-4.43-1.23-4.34-4.07-1.36,0,60.15-.44,120.23-.72,180.31L519.5,220Z"/><polygon class="cls-8" points="106 129 106 234 196 275 266.5 234 266 129 196 80 106 129"/><rect class="cls-11" x="265" y="377" width="19" height="3" rx="1.5" ry="1.5" transform="translate(101.83 -56.01) rotate(14.28)"/><circle class="cls-11" cx="296" cy="385" r="3"/></svg>
