<svg id="Layer_2" data-name="Layer 2" xmlns="http://www.w3.org/2000/svg" width="1920" height="1080" viewBox="0 0 1920 1080"><defs><style>.cls-1,.cls-10,.cls-14,.cls-3,.cls-6,.cls-8{stroke:#000;stroke-miterlimit:10;}.cls-1{opacity:0.28;}.cls-2{fill:#ffc299;}.cls-3,.cls-4{fill:#2d221d;}.cls-5{fill:#fc9;}.cls-6{fill:#141212;}.cls-7{fill:#fc9228;}.cls-8{opacity:0.09;}.cls-9{fill:#00132a;}.cls-10{fill:#2a0a00;}.cls-11{fill:#130015;}.cls-12{fill:#002f6a;}.cls-13{fill:#00097f;}.cls-14{fill:none;stroke-width:5px;opacity:0.05;}.cls-15{fill:#afb8bf;}.cls-16{fill:#a0f7f9;opacity:0.7;}.cls-17{fill:#3f250a;}</style></defs><title>drenge samlet</title><path class="cls-1" d="M439.5,566.26l-22,143.1,95,88.06-11,66,28,55,66-53v-66l86-46,26-145.1s-110-121.79-154-115.79S463.5,537.24,439.5,566.26Z"/><rect class="cls-2" x="715.5" y="1025.5" width="56" height="109" rx="28" ry="28" transform="translate(-388.41 418.2) rotate(-25.14)"/><rect class="cls-2" x="297.5" y="991.5" width="56" height="109" rx="28" ry="28" transform="translate(299.31 -49.16) rotate(15.92)"/><polygon class="cls-3" points="454.47 499.77 436.91 561.36 391.03 508.55 454.47 499.77"/><polygon class="cls-3" points="510.09 468.47 452.94 498.33 459.5 428.5 510.09 468.47"/><polygon class="cls-3" points="573.86 445.99 512.22 464.88 531.45 397.43 573.86 445.99"/><polygon class="cls-3" points="638.56 468.15 578.5 445.5 634.96 404.06 638.56 468.15"/><polygon class="cls-3" points="684.54 498.61 631.92 461.34 697.07 435.36 684.54 498.61"/><polygon class="cls-3" points="724.76 532.26 674.17 492.29 740.6 469.76 724.76 532.26"/><polygon class="cls-3" points="708.82 590.4 714.84 526.21 769.88 569.7 708.82 590.4"/><polygon class="cls-4" points="452.02 498.5 439 554.5 704 615 718.5 523.5 611.31 439.5 535.17 447.5 452.02 498.5"/><path class="cls-5" d="M439.5,554.26l-22,143.1,95,88.06-11,66,28,55,66-53v-66l86-46,26-145.1s-110-121.79-154-115.79S463.5,525.24,439.5,554.26Z"/><rect class="cls-6" x="505.5" y="579.5" width="15" height="71" rx="7.5" ry="7.5" transform="translate(129.35 -88) rotate(11.21)"/><path class="cls-5" d="M439.5,554.26l-22,143.1"/><rect class="cls-6" x="605.5" y="595.5" width="15" height="71" rx="7.5" ry="7.5" transform="translate(134.37 -107.14) rotate(11.21)"/><polygon class="cls-7" points="383.58 774 497.06 827.68 527.04 907.48 597.7 840.74 691.92 798.66 769 1046.77 686.56 1099 682.28 1046.77 666.22 1099 383.58 1075.79 369.66 998.89 360.02 1054.02 299 1003.24 383.58 774"/><path class="cls-8" d="M571.53,484.87C563.67,522.85,556,561.05,551,600c-12.17,99.27-12.07,196.78-11.19,295l51.69-41.54v-66l86-46,26-145.1S622.3,506.39,571.53,484.87Z"/><path class="cls-4" d="M517.39,446s79.26,125.65,178.1,145.76S517.39,446,517.39,446Z"/><rect class="cls-9" x="1061" y="825" width="72" height="276" rx="28" ry="28"/><rect class="cls-9" x="987" y="822" width="72" height="276" rx="28" ry="28"/><rect class="cls-5" x="889.5" y="759.5" width="167" height="41" rx="20.5" ry="20.5" transform="translate(693.16 -435.24) rotate(38.32)"/><rect class="cls-5" x="916" y="613" width="46" height="154" rx="23" ry="23" transform="translate(199.18 -210.27) rotate(14.28)"/><rect class="cls-5" x="1045" y="549" width="36" height="77" rx="18" ry="18"/><rect x="1128" y="678" width="7" height="4" rx="2" ry="2" transform="translate(247.54 -300.47) rotate(16.96)"/><rect x="1142.79" y="683.43" width="17" height="4.02" rx="2" ry="2" transform="translate(204.62 -262.77) rotate(14.28)"/><polygon class="cls-5" points="973 432 973 537 1063 578 1133.5 537 1133 432 1063 383 973 432"/><path class="cls-10" d="M1054.5,384.5l33,55h44v79s39-62,39-102-88-84-88-84l-52,55-61-7v131Z"/><rect class="cls-11" x="1080" y="452" width="9" height="60" rx="4.5" ry="4.5"/><rect class="cls-11" x="1035" y="453" width="9" height="60" rx="4.5" ry="4.5"/><path class="cls-8" d="M1132.5,536l-.5-105-70-49-1,.57q-.12,97-.2,193.86l1.25.57Z"/><polygon class="cls-12" points="913.5 675.5 930.5 568.5 1037.5 586.5 1077.5 621.5 1082.5 586.5 1158.5 563.5 1213.5 669.5 1138.5 704.5 1138.5 774.5 1143.5 874.5 978.5 874.5 978.5 725.5 978.5 695.5 913.5 675.5"/><rect class="cls-9" x="1280" y="858" width="72" height="276" rx="28" ry="28"/><rect class="cls-9" x="1334" y="854" width="72" height="276" rx="28" ry="28"/><path class="cls-11" d="M1220.37,333.23s-4.13,80.34-22.69,84.16,11.34,48.46,22.69,43.36L1235.84,499l78.38-82.88,68.06,44.63L1406,408.47s-86.63-80.34-107.25-75.24-62.91,28.06-62.91,28.06Z"/><rect class="cls-5" x="1289" y="530" width="56" height="97" rx="28" ry="28"/><path class="cls-13" d="M1415.5,642.55h.73S1423,596.34,1317,587l-65,56,.24,0a29.64,29.64,0,0,0-3.24,13.52V855.93c0,16,12.6,29.07,28,29.07h114c15.4,0,28-13.08,28-29.07V656.57A29.63,29.63,0,0,0,1415.5,642.55Z"/><polygon class="cls-5" points="1324.5 654.5 1342.5 631.5 1376.5 654.5 1362.5 835.5 1206.5 756.5 1179.5 724.5 1140.5 714.5 1140.5 686.5 1214.5 707.5 1227.5 699.5 1227.5 716.5 1316.5 775.5 1324.5 654.5"/><path class="cls-5" d="M1295,587l91-67-8-77s-71-21-70-41-32,52-74,67v75S1272,587,1295,587Z"/><path class="cls-14" d="M1294.5,587l91-67-8-77s-71-21-70-41-32,52-74,67v75S1271.5,587,1294.5,587Z"/><rect class="cls-11" x="1268" y="463" width="9" height="60" rx="4.5" ry="4.5" transform="translate(-40.37 120.62) rotate(-5.34)"/><rect class="cls-15" x="1116.1" y="681.06" width="108.19" height="18.08" rx="9" ry="9" transform="translate(206.35 -267.29) rotate(14.28)"/><rect class="cls-11" x="1313" y="452" width="9" height="60" rx="4.5" ry="4.5"/><path class="cls-16" d="M1125.61,634.38l-51.61-137,300.24,142-138.65,47A87.49,87.49,0,0,1,1125.61,634.38Z"/><path class="cls-8" d="M1378.5,446s-71-21-70-41c.22-4.43-1.23-4.34-4.07-1.36,0,60.15-.44,120.23-.72,180.31l82.79-61Z"/><polygon class="cls-14" points="973 432 973 537 1063 578 1133.5 537 1133 432 1063 383 973 432"/><rect class="cls-17" x="1132" y="680" width="19" height="3" rx="1.5" ry="1.5" transform="translate(203.34 -260.48) rotate(14.28)"/><circle class="cls-17" cx="1163" cy="688" r="3"/></svg>