<svg id="Layer_1" data-name="Layer 1" xmlns="http://www.w3.org/2000/svg" width="510" height="430" viewBox="0 0 510 430"><defs><style>.cls-1{fill:#f90b0b;}.cls-2{opacity:0.11;}.cls-3{fill:#fcfcfc;}</style></defs><title>Hjerte</title><path class="cls-1" d="M255.15,425s180.6-119.44,229.24-205.3l10.76-19.23A137.49,137.49,0,0,0,255,67.91,137.48,137.48,0,0,0,14.81,200.51l10.76,19.23C74.21,305.6,254.8,425,254.8,425Z"/><path class="cls-2" d="M370.52,5a137.4,137.4,0,0,0-115.5,63l0-.06V425h.22S435.79,305.6,484.43,219.75l10.76-19.24A137.37,137.37,0,0,0,370.52,5Z"/><ellipse class="cls-3" cx="60.58" cy="52.54" rx="28.32" ry="6.4" transform="translate(-19.59 50.66) rotate(-39.59)"/></svg>
