<svg id="Layer_1" data-name="Layer 1" xmlns="http://www.w3.org/2000/svg" width="220" height="250" viewBox="0 0 220 250"><defs><style>.cls-1{fill:#f2902c;}.cls-2{fill:#fcf9f7;}.cls-3{fill:#152230;}</style></defs><title>Playknap</title><path class="cls-1" d="M210.72,140.22,24.53,245.12A15.53,15.53,0,0,1,1.37,231.44L3.32,18.27A15.54,15.54,0,0,1,26.73,5L211,113.29A15.53,15.53,0,0,1,210.72,140.22Z"/><path class="cls-2" d="M29.87,11.53A15.54,15.54,0,0,0,6.44,24.73l-.08,9.61Q14.6,12,37.25,15.87Z"/><path class="cls-3" d="M29.33,134.51v15.91H16.85V102.59H36.71a22.38,22.38,0,0,1,6.91.91,13.78,13.78,0,0,1,5.05,3.09q4.71,4.41,4.71,11.88,0,7.25-3.87,11.59t-12.38,4.45Zm0-10h4.15q3.62,0,5.1-1.37a5.86,5.86,0,0,0,1.75-4.55q0-6-6.82-6H29.33Z"/><path class="cls-3" d="M72.47,102.59v37.32h15v10.51H60V102.59Z"/><path class="cls-3" d="M123,142.08H105.79l-3.3,8.34H89.31l18.45-47.83h13.61l18.07,47.83H126.11Zm-3.37-9.46-5.17-15.24-5.24,15.24Z"/><path class="cls-3" d="M151.81,127.44l-17.36-24.85h14.9l9.07,13,8.72-13h15.12l-18,24.85v23H151.81Z"/></svg>
