<svg id="Layer_1" data-name="Layer 1" xmlns="http://www.w3.org/2000/svg" width="618" height="644" viewBox="0 0 618 644"><defs><style>.cls-1{fill:#ffe0b4;}.cls-2{fill:#ffcfb4;}.cls-3{fill:#ffcfd0;}.cls-4{fill:#c69c6d;}</style></defs><title>settings</title><path class="cls-1" d="M397.59,627.25a84,84,0,0,0-166.18,0,309.17,309.17,0,0,1-62.53-24.9A84,84,0,0,0,48.62,488.91a309.34,309.34,0,0,1-33.87-78.32,84,84,0,0,0,0-166.18,309.33,309.33,0,0,1,27.13-66.66A83.17,83.17,0,0,0,93.5,195.5,84,84,0,0,0,158.57,58.38a309.07,309.07,0,0,1,72.71-30.6,84,84,0,0,0,166.44,0A309.46,309.46,0,0,1,469.1,57.59,84,84,0,0,0,586.51,176.66,309.11,309.11,0,0,1,617.24,256a84,84,0,0,0-6.38,166A310.25,310.25,0,0,1,585,481.13,83.09,83.09,0,0,0,533.5,463.5a84.09,84.09,0,0,0-84,84,83.15,83.15,0,0,0,17.39,51.15A308.92,308.92,0,0,1,397.59,627.25Z"/><path d="M398.14,28.42a309.1,309.1,0,0,1,70.2,29.31,84.49,84.49,0,0,0,118,119.69,308.76,308.76,0,0,1,30.26,78.15,84.5,84.5,0,0,0-6.41,166.84,309.79,309.79,0,0,1-25.4,58A83.66,83.66,0,0,0,533.5,463,84.6,84.6,0,0,0,449,547.5a83.61,83.61,0,0,0,17.14,51A308.93,308.93,0,0,1,398,626.62a84.49,84.49,0,0,0-167,0,309.19,309.19,0,0,1-61.41-24.46,84.5,84.5,0,0,0-120.83-114A308.81,308.81,0,0,1,15.38,411a84.49,84.49,0,0,0,0-167A309.3,309.3,0,0,1,42,178.5,83.6,83.6,0,0,0,93.5,196,84.49,84.49,0,0,0,159.32,58.52a308.59,308.59,0,0,1,71.54-30.1,84.48,84.48,0,0,0,167.28,0m-.84-1.27a83.48,83.48,0,0,1-165.6,0,309.79,309.79,0,0,0-73.89,31.09A83.49,83.49,0,0,1,41.73,177a309.8,309.8,0,0,0-27.62,67.83,83.49,83.49,0,0,1,0,165.36,310.25,310.25,0,0,0,34.37,79.46A83.5,83.5,0,0,1,168.16,602.53a309.18,309.18,0,0,0,63.66,25.36,83.49,83.49,0,0,1,165.36,0,309.91,309.91,0,0,0,70.46-29.09A83.48,83.48,0,0,1,585.1,481.88a309.51,309.51,0,0,0,26.41-60.25,83.49,83.49,0,0,1,6.34-165.18,309.27,309.27,0,0,0-31.19-80.55A83.49,83.49,0,0,1,469.87,57.46,309.47,309.47,0,0,0,397.3,27.15Z"/><circle class="cls-2" cx="315.5" cy="327.5" r="112.5"/><circle class="cls-3" cx="315.5" cy="327.5" r="39"/><path class="cls-4" d="M315.5,289A38.5,38.5,0,1,1,277,327.5,38.54,38.54,0,0,1,315.5,289m0-1A39.5,39.5,0,1,0,355,327.5,39.49,39.49,0,0,0,315.5,288Z"/></svg>
