<svg id="Layer_1" data-name="Layer 1" xmlns="http://www.w3.org/2000/svg" width="880" height="630" viewBox="0 0 880 630"><defs><style>.cls-1{fill:#152230;}.cls-2{fill:#f2902c;}.cls-3{fill:#fcfcfc;}.cls-4{fill:#fff;}</style></defs><title>Snapout_ofit</title><path class="cls-1" d="M140,319.08c-4.47,1.51-7.58,5-11.2,7.75-12.78,9.6-25.41,19.39-38.12,29.09-1,.76-1.92,2.25-3.37,1.66-1.79-.72-1.08-2.59-1.08-4,0-19.66-.2-39.32.08-59,.07-4.61-1.4-5.5-5.64-5.41-12.49.27-25,.17-37.49,0-15.17-.15-26.33-11.64-26.33-26.8,0-71.81.36-143.62-.16-215.43-.13-18.34,13-29.73,29.79-29.71q395.12.45,790.25.21c16.22,0,27.22,11,27.23,27.27q0,108.72.06,217.43c0,13.63-7.13,22.54-21.56,26.84-2.83.05-5.66.14-8.49.14H364.22q-90.44,0-180.88,0c-3.77,0-6.94.55-10.07,3.19-6.35,5.34-13.4,9.86-19.78,15.17C148.94,311.33,143.3,313.87,140,319.08Z"/><path class="cls-2" d="M140,319.08c3.34-5.21,9-7.75,13.53-11.53,6.38-5.31,13.43-9.83,19.78-15.17,3.13-2.64,6.3-3.2,10.07-3.19q90.43.07,180.88,0H833.93c2.83,0,5.66-.09,8.49-.14,1.57,3,5.08,2.68,7.53,4.29,8.31,5.46,12.56,12.81,12.55,22.83,0,72-.26,144,.21,215.92.1,15-10.82,29-29,29q-192.93-.39-385.86-.13c-46.48,0-93,.11-139.45-.09a20.71,20.71,0,0,0-13.57,4.71Q262.13,590.88,229.33,616c-5,3.84-10.13,7.49-15.16,11.29-3.12,2.37-4.25,1.55-4.24-2.23q0-28.23-.13-56.47c0-7.54-.16-7.65-7.52-7.66-11.33,0-22.68-.35-34,.1-15.83.63-28.4-12-28.33-28.58.28-69.47.12-138.95.12-208.42C140.08,322.4,140,320.74,140,319.08Z"/><path class="cls-3" d="M156.83,114.07l-9,17.51q-7.23-5.84-14.73-5.83a10,10,0,0,0-7.42,2.66,6.54,6.54,0,0,0-2.22,4.76c0,2.63,1.79,4.81,5.39,6.54q1.53.71,10.22,3.3,11.3,3.36,16.28,9t5,15q0,16.76-11.18,24.56Q140,198.05,126.56,198a51.67,51.67,0,0,1-30.15-9.83l9.64-18.16q10.1,8.82,19.87,8.82c4,0,6.88-1,8.7-3.11a8,8,0,0,0,2.16-5.33,6.61,6.61,0,0,0-2.83-5.62q-2.82-2.06-10.76-4.41-12.37-3.61-16.44-7-6.91-5.65-6.92-17.2,0-13.52,9-21.71,8.13-7.49,20.57-7.49A58,58,0,0,1,156.83,114.07Z"/><path class="cls-3" d="M174.54,195.76V109.11h22.54l41.45,53v-53h22.53v86.65H238.53l-41.45-53.07v53.07Z"/><path class="cls-3" d="M431.75,166.94v28.82H409.22V109.11h35.86a39.87,39.87,0,0,1,12.48,1.65,25,25,0,0,1,9.1,5.59q8.5,8,8.51,21.52,0,13.14-7,21-7.11,8.06-22.35,8.06Zm0-18.09h7.49c4.36,0,7.43-.82,9.21-2.48q3.17-2.91,3.17-8.25,0-10.91-12.31-10.91h-7.56Z"/><path class="cls-3" d="M563.66,106.51q21.71,0,35.48,14.54a44.19,44.19,0,0,1,12.5,31.61,45.5,45.5,0,0,1-6.28,23.42,44.4,44.4,0,0,1-18.6,17.58,51.26,51.26,0,0,1-23.48,5.21q-21.4,0-35-14.47-12.51-13.2-12.51-32.5A43.14,43.14,0,0,1,522,129.3Q535.4,107,563.66,106.51Zm0,21.84a24.4,24.4,0,0,0-24.32,24.06,23.92,23.92,0,0,0,7.18,17.51,23.28,23.28,0,0,0,17.2,7.11,24.26,24.26,0,0,0,24.37-24.37,23.18,23.18,0,0,0-7.1-17.2A24.38,24.38,0,0,0,563.66,128.35Z"/><path class="cls-3" d="M648.46,109.11V156a80.89,80.89,0,0,0,.41,10.1,15,15,0,0,0,2.07,5.39q3.87,6.6,12.56,6.6a16.43,16.43,0,0,0,7.84-1.9,12.78,12.78,0,0,0,5.37-5.14,16.38,16.38,0,0,0,1.84-5.4A72.92,72.92,0,0,0,679,156V109.11h22.54v50q0,12.44-3.3,19.11a33.81,33.81,0,0,1-15,15.36A43.31,43.31,0,0,1,663.19,198q-13,0-22.66-5.65a26.51,26.51,0,0,1-11.33-12.22q-3.27-7.46-3.27-21v-50Z"/><path class="cls-3" d="M752.37,128.16v67.6H729.84v-67.6H711.49v-19H771v19Z"/><path class="cls-4" d="M386,379.36q21.7,0,35.48,14.54A44.21,44.21,0,0,1,434,425.51a45.51,45.51,0,0,1-6.29,23.42,44.25,44.25,0,0,1-18.6,17.59,51.26,51.26,0,0,1-23.48,5.2q-21.39,0-35-14.47Q338,444.05,338,424.75a43.16,43.16,0,0,1,6.29-22.6Q357.73,379.82,386,379.36Zm0,21.84a24.38,24.38,0,0,0-24.31,24.06,24,24,0,0,0,7.17,17.52,23.3,23.3,0,0,0,17.2,7.11,24.28,24.28,0,0,0,24.38-24.38,23.16,23.16,0,0,0-7.11-17.2A24.38,24.38,0,0,0,386,401.2Z"/><path class="cls-4" d="M497.88,401H470.77v14.47h24.7v19h-24.7v34.09H448.24V382h49.64Z"/><path class="cls-4" d="M566.37,382v86.64H543.83V382Z"/><path class="cls-4" d="M617.28,401v67.6H594.74V401H576.4V382h59.54v19Z"/></svg>
